<?xml version="1.0" encoding="UTF-8" standalone="no"?>
<svg
   xmlns:dc="http://purl.org/dc/elements/1.1/"
   xmlns:cc="http://creativecommons.org/ns#"
   xmlns:rdf="http://www.w3.org/1999/02/22-rdf-syntax-ns#"
   xmlns:svg="http://www.w3.org/2000/svg"
   xmlns="http://www.w3.org/2000/svg"
   xmlns:sodipodi="http://sodipodi.sourceforge.net/DTD/sodipodi-0.dtd"
   xmlns:inkscape="http://www.inkscape.org/namespaces/inkscape"
   id="Layer"
   enable-background="new 0 0 64 64"
   height="512"
   viewBox="0 0 64 64"
   width="512"
   version="1.1"
   sodipodi:docname="back(black).svg"
   inkscape:version="0.92.4 5da689c313, 2019-01-14">
  <metadata
     id="metadata9">
    <rdf:RDF>
      <cc:Work
         rdf:about="">
        <dc:format>image/svg+xml</dc:format>
        <dc:type
           rdf:resource="http://purl.org/dc/dcmitype/StillImage" />
        <dc:title></dc:title>
      </cc:Work>
    </rdf:RDF>
  </metadata>
  <defs
     id="defs7" />
  <sodipodi:namedview
     pagecolor="#ffffff"
     bordercolor="#666666"
     borderopacity="1"
     objecttolerance="10"
     gridtolerance="10"
     guidetolerance="10"
     inkscape:pageopacity="0"
     inkscape:pageshadow="2"
     inkscape:window-width="1920"
     inkscape:window-height="1054"
     id="namedview5"
     showgrid="false"
     inkscape:zoom="0.4609375"
     inkscape:cx="256"
     inkscape:cy="256"
     inkscape:window-x="405"
     inkscape:window-y="0"
     inkscape:window-maximized="1"
     inkscape:current-layer="Layer" />
  <path
     d="m54 30h-39.899l15.278-14.552c.8-.762.831-2.028.069-2.828-.761-.799-2.027-.831-2.828-.069l-17.448 16.62c-.755.756-1.172 1.76-1.172 2.829 0 1.068.417 2.073 1.207 2.862l17.414 16.586c.387.369.883.552 1.379.552.528 0 1.056-.208 1.449-.621.762-.8.731-2.065-.069-2.827l-15.342-14.552h39.962c1.104 0 2-.896 2-2s-.896-2-2-2z"
     id="path2" />
</svg>
