<?xml version="1.0" encoding="UTF-8" standalone="no"?>
<svg
   xmlns:dc="http://purl.org/dc/elements/1.1/"
   xmlns:cc="http://creativecommons.org/ns#"
   xmlns:rdf="http://www.w3.org/1999/02/22-rdf-syntax-ns#"
   xmlns:svg="http://www.w3.org/2000/svg"
   xmlns="http://www.w3.org/2000/svg"
   xmlns:sodipodi="http://sodipodi.sourceforge.net/DTD/sodipodi-0.dtd"
   xmlns:inkscape="http://www.inkscape.org/namespaces/inkscape"
   height="512pt"
   viewBox="0 0 512 512"
   width="512pt"
   version="1.1"
   id="svg6"
   sodipodi:docname="remove.svg"
   inkscape:version="0.92.4 5da689c313, 2019-01-14">
  <metadata
     id="metadata12">
    <rdf:RDF>
      <cc:Work
         rdf:about="">
        <dc:format>image/svg+xml</dc:format>
        <dc:type
           rdf:resource="http://purl.org/dc/dcmitype/StillImage" />
        <dc:title></dc:title>
      </cc:Work>
    </rdf:RDF>
  </metadata>
  <defs
     id="defs10" />
  <sodipodi:namedview
     pagecolor="#ffffff"
     bordercolor="#666666"
     borderopacity="1"
     objecttolerance="10"
     gridtolerance="10"
     guidetolerance="10"
     inkscape:pageopacity="0"
     inkscape:pageshadow="2"
     inkscape:window-width="640"
     inkscape:window-height="480"
     id="namedview8"
     showgrid="false"
     inkscape:zoom="0.34570313"
     inkscape:cx="341.33333"
     inkscape:cy="341.33333"
     inkscape:window-x="743"
     inkscape:window-y="378"
     inkscape:window-maximized="0"
     inkscape:current-layer="svg6" />
  <path
     d="m453.332031 0h-394.664062c-32.363281 0-58.667969 26.304688-58.667969 58.667969v394.664062c0 32.363281 26.304688 58.667969 58.667969 58.667969h394.664062c32.363281 0 58.667969-26.304688 58.667969-58.667969v-394.664062c0-32.363281-26.304688-58.667969-58.667969-58.667969zm0 0"
     fill="#f44336"
     id="path2" />
  <path
     d="m350.273438 320.105469c8.339843 8.34375 8.339843 21.847656 0 30.167969-4.160157 4.160156-9.621094 6.25-15.085938 6.25-5.460938 0-10.921875-2.089844-15.082031-6.25l-64.105469-64.109376-64.105469 64.109376c-4.160156 4.160156-9.621093 6.25-15.082031 6.25-5.464844 0-10.925781-2.089844-15.085938-6.25-8.339843-8.320313-8.339843-21.824219 0-30.167969l64.109376-64.105469-64.109376-64.105469c-8.339843-8.34375-8.339843-21.847656 0-30.167969 8.34375-8.339843 21.824219-8.339843 30.167969 0l64.105469 64.109376 64.105469-64.109376c8.34375-8.339843 21.824219-8.339843 30.167969 0 8.339843 8.320313 8.339843 21.824219 0 30.167969l-64.109376 64.105469zm0 0"
     fill="#fafafa"
     id="path4" />
</svg>
