<?xml version="1.0" encoding="UTF-8" standalone="no"?>
<!-- Generator: Adobe Illustrator 19.0.0, SVG Export Plug-In . SVG Version: 6.00 Build 0)  -->

<svg
   xmlns:dc="http://purl.org/dc/elements/1.1/"
   xmlns:cc="http://creativecommons.org/ns#"
   xmlns:rdf="http://www.w3.org/1999/02/22-rdf-syntax-ns#"
   xmlns:svg="http://www.w3.org/2000/svg"
   xmlns="http://www.w3.org/2000/svg"
   xmlns:sodipodi="http://sodipodi.sourceforge.net/DTD/sodipodi-0.dtd"
   xmlns:inkscape="http://www.inkscape.org/namespaces/inkscape"
   version="1.1"
   id="Capa_1"
   x="0px"
   y="0px"
   viewBox="0 0 512 512"
   style="enable-background:new 0 0 512 512;"
   xml:space="preserve"
   sodipodi:docname="upload.svg"
   inkscape:version="0.92.4 5da689c313, 2019-01-14"><metadata
   id="metadata49"><rdf:RDF><cc:Work
       rdf:about=""><dc:format>image/svg+xml</dc:format><dc:type
         rdf:resource="http://purl.org/dc/dcmitype/StillImage" /><dc:title></dc:title></cc:Work></rdf:RDF></metadata><defs
   id="defs47" /><sodipodi:namedview
   pagecolor="#ffffff"
   bordercolor="#666666"
   borderopacity="1"
   objecttolerance="10"
   gridtolerance="10"
   guidetolerance="10"
   inkscape:pageopacity="0"
   inkscape:pageshadow="2"
   inkscape:window-width="1920"
   inkscape:window-height="1054"
   id="namedview45"
   showgrid="false"
   inkscape:zoom="0.4609375"
   inkscape:cx="-119.32203"
   inkscape:cy="264.67797"
   inkscape:window-x="405"
   inkscape:window-y="0"
   inkscape:window-maximized="1"
   inkscape:current-layer="g10" />
<g
   id="g12">
	<g
   id="g10"
   style="fill:#ff0000">
		<g
   id="g8"
   style="fill:#ffffff">
			<path
   d="m 256,423 c 11.046,0 20,-8.954 20,-20 V 158 c 0,-11.046 -8.954,-20 -20,-20 -11.046,0 -20,8.954 -20,20 v 245 c 0,11.046 8.954,20 20,20 z"
   id="path2"
   style="fill:#ffffff"
   inkscape:connector-curvature="0" />
			<path
   d="m 299.52739,48.650109 c -0.034,-0.034 -0.067,-0.068 -0.101,-0.102 -11.701,-11.701 -27.069,-17.549 -42.437,-17.549 -15.356,0 -30.71,5.842 -42.388,17.521 l -110.716,110.284001 c -7.825996,7.795 -7.850996,20.458 -0.056,28.284 7.795,7.825 20.458,7.851 28.284,0.056 l 110.744,-110.312001 c 3.778,-3.777 8.8,-5.858 14.142,-5.858 5.323,0 10.329,2.065 14.102,5.817 l 108.655,110.224001 c 7.754,7.867 20.418,7.957 28.284,0.203 7.866,-7.754 7.957,-20.417 0.203,-28.284 z"
   id="path4"
   style="fill:#ffffff"
   inkscape:connector-curvature="0" />
			<path
   d="M492,412c-11.046,0-20,8.954-20,20c0,22.056-17.944,40-40,40H80c-22.056,0-40-17.944-40-40c0-11.046-8.954-20-20-20     s-20,8.954-20,20c0,44.112,35.888,80,80,80h352c44.112,0,80-35.888,80-80C512,420.954,503.046,412,492,412z"
   id="path6"
   style="fill:#ffffff" />
		</g>
	</g>
</g>
<g
   id="g14">
</g>
<g
   id="g16">
</g>
<g
   id="g18">
</g>
<g
   id="g20">
</g>
<g
   id="g22">
</g>
<g
   id="g24">
</g>
<g
   id="g26">
</g>
<g
   id="g28">
</g>
<g
   id="g30">
</g>
<g
   id="g32">
</g>
<g
   id="g34">
</g>
<g
   id="g36">
</g>
<g
   id="g38">
</g>
<g
   id="g40">
</g>
<g
   id="g42">
</g>
</svg>